<?xml version="1.0" standalone="no"?><!DOCTYPE svg PUBLIC "-//W3C//DTD SVG 1.1//EN" "http://www.w3.org/Graphics/SVG/1.1/DTD/svg11.dtd"><svg class="icon" style="" viewBox="0 0 1024 1024" version="1.1" xmlns="http://www.w3.org/2000/svg" p-id="1465" xmlns:xlink="http://www.w3.org/1999/xlink" width="200" height="200"><defs><style type="text/css"><![CDATA[

]]></style></defs><path d="M512 0C229.888 0 0 229.888 0 512c0 281.856 229.888 512 512 512s512-230.144 512-512C1024 229.888 794.112 0 512 0zM444.416 375.04c0.256 190.208 0.256 380.672 0.768 570.88 0 24.32-8.96 30.208-25.6 30.208-16.896 0-28.672-5.888-28.672-30.208-0.256-190.464 0-380.928 0-571.392-44.288-34.304-59.136-82.944-49.664-143.104l28.416-165.888 6.656-0.768 0.768 203.264 11.264 0 12.8-203.264 6.4 0 4.096 204.032 12.032-0.768 9.984-203.264 6.4 0 7.68 202.496 14.848 0-0.512-202.496 6.912 0 27.648 166.4C500.992 297.472 488.192 349.184 444.416 375.04zM643.328 946.432c-4.096 17.92-11.52 23.296-28.416 23.808-16.896 0.768-28.16-4.608-28.928-23.808L585.984 506.368c1.536-27.904-0.256-55.552-25.344-81.408-12.032-7.936-18.688-23.808-19.456-47.616l2.048-260.096c-0.512-59.136 59.136-56.32 100.096-52.48L643.328 946.432z" p-id="1466" fill="#FF6DAE"></path></svg>